<svg width="36" height="35" viewBox="0 0 36 35" fill="none" xmlns="http://www.w3.org/2000/svg">
<path d="M29.7272 23.7806C29.1089 25.1186 28.8128 25.7165 28.0195 26.897C26.9104 28.5478 25.3435 30.6077 23.4068 30.6223C21.6852 30.6354 21.2404 29.5235 18.9035 29.5417C16.5672 29.5534 16.0801 30.6427 14.3557 30.6238C12.4204 30.6077 10.9373 28.7513 9.82753 27.1048C6.72201 22.4819 6.39534 17.0657 8.31378 14.1833C9.67076 12.1394 11.8189 10.9392 13.835 10.9392C15.8891 10.9392 17.1804 12.0432 18.8779 12.0432C20.5273 12.0432 21.5307 10.937 23.9063 10.937C25.7029 10.937 27.6032 11.8944 28.9601 13.5438C24.5195 15.9223 25.2407 22.121 29.7272 23.7806Z" fill="#42A5F5"/>
<path d="M22.4077 8.8025C23.333 7.6526 24.0352 6.02875 23.78 4.375C22.2713 4.47563 20.5053 5.40896 19.4743 6.61719C18.5395 7.71823 17.7644 9.35302 18.0662 10.9353C19.7134 10.9856 21.4182 10.0362 22.4077 8.8025Z" fill="#42A5F5"/>
<path d="M27.2864 14.8901C20.9164 21.8756 15.0831 15.3131 7.22852 20.3013C7.50195 22.5085 8.34414 24.8972 9.828 27.1051C10.9371 28.7516 12.4209 30.6081 14.3561 30.6241C16.0806 30.6423 16.5677 29.5529 18.9039 29.542C21.2409 29.5245 21.685 30.6358 23.4073 30.6226C25.3439 30.6073 26.9109 28.5474 28.02 26.8973C28.8133 25.7168 29.1093 25.1189 29.7277 23.7809C25.9316 22.3765 24.8459 17.7288 27.2864 14.8901Z" fill="#1E88E5"/>
</svg>
