<svg width="17" height="17" viewBox="0 0 17 17" fill="none" xmlns="http://www.w3.org/2000/svg">
<g clip-path="url(#clip0_573_13979)">
<path d="M8.0625 1.40938V3.48563C5.7305 3.82044 3.9375 5.82657 3.9375 8.25C3.9375 10.9079 6.09212 13.0625 8.75 13.0625C9.83075 13.0625 10.829 12.7064 11.632 12.1041L13.1012 13.5733C11.9159 14.5427 10.4 15.125 8.75 15.125C4.95294 15.125 1.875 12.0471 1.875 8.25C1.875 4.68532 4.58856 1.75382 8.0625 1.40938ZM15.5906 8.9375C15.4531 10.3201 14.9073 11.5823 14.0733 12.6005L12.6041 11.132C13.0764 10.5023 13.3968 9.75288 13.5137 8.9375H15.5913H15.5906ZM9.43887 1.40938C12.6866 1.73182 15.2689 4.31475 15.592 7.5625H13.5144C13.2133 5.45532 11.5461 3.78813 9.43887 3.48632V1.40869V1.40938Z" fill="#2EAB6A"/>
</g>
<defs>
<clipPath id="clip0_573_13979">
<rect width="16.5" height="16.5" fill="white" transform="translate(0.5)"/>
</clipPath>
</defs>
</svg>
