<svg width="35" height="36" viewBox="0 0 35 36" fill="none" xmlns="http://www.w3.org/2000/svg">
<path d="M17.5007 4.48145C13.8263 4.48145 10.3024 5.94108 7.70428 8.53924C5.10612 11.1374 3.64648 14.6613 3.64648 18.3356C3.64648 22.01 5.10612 25.5338 7.70428 28.132C10.3024 30.7301 13.8263 32.1898 17.5007 32.1898C21.175 32.1898 24.6989 30.7301 27.297 28.132C29.8952 25.5338 31.3548 22.01 31.3548 18.3356C31.3548 14.6613 29.8952 11.1374 27.297 8.53924C24.6989 5.94108 21.175 4.48145 17.5007 4.48145Z" fill="#039BE5"/>
<path d="M19.3755 22.0079H22.9608L23.5238 18.3658H19.3748V16.3751C19.3748 14.8621 19.8692 13.5204 21.2845 13.5204H23.5587V10.342C23.1592 10.288 22.3141 10.1699 20.7172 10.1699C17.3827 10.1699 15.4278 11.9309 15.4278 15.9427V18.3658H12V22.0079H15.4278V32.0187C16.1067 32.1208 16.7943 32.19 17.5001 32.19C18.1381 32.19 18.7608 32.1317 19.3755 32.0486V22.0079Z" fill="white"/>
</svg>
