<svg width="36" height="35" viewBox="0 0 36 35" fill="none" xmlns="http://www.w3.org/2000/svg">
<path d="M32.299 14.6437H31.1243V14.5832H17.9993V20.4165H26.2411C25.0387 23.8122 21.8078 26.2498 17.9993 26.2498C13.1672 26.2498 9.24935 22.332 9.24935 17.4998C9.24935 12.6676 13.1672 8.74984 17.9993 8.74984C20.2299 8.74984 22.2591 9.59129 23.8042 10.9658L27.9291 6.84088C25.3246 4.41348 21.8406 2.9165 17.9993 2.9165C9.9457 2.9165 3.41602 9.44619 3.41602 17.4998C3.41602 25.5535 9.9457 32.0832 17.9993 32.0832C26.053 32.0832 32.5827 25.5535 32.5827 17.4998C32.5827 16.522 32.4821 15.5675 32.299 14.6437Z" fill="#FFC107"/>
<path d="M5.09766 10.712L9.88901 14.2259C11.1855 11.0161 14.3253 8.74984 17.9995 8.74984C20.2301 8.74984 22.2593 9.59129 23.8044 10.9658L27.9293 6.84088C25.3247 4.41348 21.8408 2.9165 17.9995 2.9165C12.3981 2.9165 7.54036 6.0789 5.09766 10.712Z" fill="#FF3D00"/>
<path d="M18.0004 32.0833C21.7673 32.0833 25.19 30.6418 27.7778 28.2975L23.2642 24.4781C21.8001 25.5872 19.9801 26.25 18.0004 26.25C14.2073 26.25 10.9865 23.8314 9.7732 20.4561L5.01758 24.1201C7.43112 28.8429 12.3326 32.0833 18.0004 32.0833Z" fill="#4CAF50"/>
<path d="M32.2997 14.644H31.125V14.5835H18V20.4168H26.2418C25.6643 22.048 24.615 23.4545 23.2617 24.479L23.2639 24.4776L27.7774 28.2969C27.458 28.5871 32.5833 24.7918 32.5833 17.5002C32.5833 16.5224 32.4827 15.5679 32.2997 14.644Z" fill="#1976D2"/>
</svg>
