<svg width="344" height="108" viewBox="0 0 344 108" fill="none" xmlns="http://www.w3.org/2000/svg">
<g filter="url(#filter0_d_314_6050)">
<path d="M21.5385 52.6079L22.4671 47.3926L16 83.6767L55.0664 47.3926H31.162L21.5385 52.6079Z" fill="url(#paint0_linear_314_6050)"/>
<path d="M88.5203 16.3237H28.0029L22.4668 47.3925H31.1617L88.5203 16.3237Z" fill="url(#paint1_linear_314_6050)"/>
<path d="M31.1626 47.3926H22.4677L21.5391 52.6079L31.1626 47.3926Z" fill="url(#paint2_linear_314_6050)"/>
<path d="M113.207 38.2028L114.316 31.958H119.821L118.712 38.2028H113.207Z" fill="#30AD6A"/>
<path d="M107.816 67.6381L112.419 42.4897H117.644L113.046 67.6381H107.816Z" fill="#DFEEDE"/>
<path d="M145.371 43.2769C146.668 44.1147 147.627 45.3753 148.083 46.84C148.558 48.3395 148.618 50.0317 148.266 51.9543L148.25 52.0483L145.4 67.6332H140.175L142.896 52.7534L142.913 52.6594C143.369 50.1727 143.115 48.3395 142.165 47.1197C141.215 45.8999 139.669 45.2911 137.481 45.2911C135.294 45.2911 133.524 45.8999 132.128 47.1197C130.731 48.3395 129.8 50.2197 129.344 52.7064L126.616 67.5932H121.391L125.986 42.4308H131.211L130.283 47.5451C131.281 45.8974 132.666 44.5122 134.32 43.5073C136.006 42.4731 137.968 41.9561 140.258 41.9561C142.34 41.9561 144.079 42.3791 145.409 43.2722L145.371 43.2769Z" fill="#DFEEDE"/>
<path d="M212.651 67.732L205.55 53.1859H195.832L193.176 67.732H187.785L194.305 32.0566H209.267C212.203 32.0566 214.687 32.4789 216.72 33.3235C218.755 34.1696 220.242 35.3894 221.123 36.9876C222.004 38.5858 222.249 40.4614 221.862 42.5719C221.454 44.9594 220.246 47.1416 218.432 48.7674C216.577 50.4596 214.219 51.6794 211.364 52.3821L218.931 67.638L212.651 67.732ZM196.623 48.8614H206.286C209.063 48.8614 211.355 48.2996 213.098 47.2161C213.941 46.7189 214.664 46.0455 215.217 45.2429C215.769 44.4403 216.138 43.5279 216.297 42.5696C216.668 40.5507 216.152 39.0018 214.801 37.923C213.449 36.8442 211.364 36.2778 208.588 36.2778H198.924L196.623 48.8614Z" fill="#DFEEDE"/>
<path d="M246.005 31.9624C250.061 31.9624 253.455 32.6675 256.248 34.0283C259.041 35.3892 261.022 37.4081 262.186 40.0827C263.35 42.7574 263.611 45.9985 262.917 49.8013C262.224 53.6041 260.827 56.8522 258.683 59.5175C256.536 62.1974 253.727 64.2836 250.527 65.5742C247.235 66.935 243.585 67.6378 239.528 67.6378H225.713L232.23 31.9624H246.005ZM240.407 63.4096C243.159 63.4339 245.885 62.8728 248.399 61.7643C250.688 60.7605 252.671 59.1802 254.151 57.1812C255.64 55.1623 256.683 52.6733 257.217 49.7637C257.74 46.901 257.652 44.4614 256.899 42.4401C256.166 40.451 254.721 38.7975 252.838 37.7935C250.9 36.7124 248.432 36.1977 245.39 36.1977H236.795L231.807 63.4237H240.402L240.407 63.4096Z" fill="#DFEEDE"/>
<path d="M313.475 67.6378H308.081L314.584 32.1034L296.059 67.6378H284.852L279.351 32.1034L272.851 67.6378H267.457L273.984 31.9624H284.982L290.492 67.4991L309.003 31.9624H320.002L313.475 67.6378Z" fill="#DFEEDE"/>
<path d="M107.049 36.1883H86.5502L84.4958 47.4251H104.683L103.909 51.6557H83.7216L80.7955 67.6378H75.4043L81.9332 31.9624H107.821L107.049 36.1883Z" fill="#DFEEDE"/>
<path d="M186.07 36.1883H165.572L163.517 47.4251H183.705L182.933 51.6557H162.745L159.819 67.6378H154.426L160.952 31.9624H186.84L186.07 36.1883Z" fill="#DFEEDE"/>
</g>
<defs>
<filter id="filter0_d_314_6050" x="0" y="0.32373" width="344.002" height="107.353" filterUnits="userSpaceOnUse" color-interpolation-filters="sRGB">
<feFlood flood-opacity="0" result="BackgroundImageFix"/>
<feColorMatrix in="SourceAlpha" type="matrix" values="0 0 0 0 0 0 0 0 0 0 0 0 0 0 0 0 0 0 127 0" result="hardAlpha"/>
<feOffset dx="4" dy="4"/>
<feGaussianBlur stdDeviation="10"/>
<feComposite in2="hardAlpha" operator="out"/>
<feColorMatrix type="matrix" values="0 0 0 0 0.059647 0 0 0 0 0.161377 0 0 0 0 0.129586 0 0 0 1 0"/>
<feBlend mode="normal" in2="BackgroundImageFix" result="effect1_dropShadow_314_6050"/>
<feBlend mode="normal" in="SourceGraphic" in2="effect1_dropShadow_314_6050" result="shape"/>
</filter>
<linearGradient id="paint0_linear_314_6050" x1="16.3966" y1="58.9702" x2="34.4532" y2="65.2965" gradientUnits="userSpaceOnUse">
<stop stop-color="#F8B926"/>
<stop offset="1" stop-color="#FAC753"/>
</linearGradient>
<linearGradient id="paint1_linear_314_6050" x1="29.0693" y1="22.7941" x2="47.1259" y2="29.1181" gradientUnits="userSpaceOnUse">
<stop stop-color="#06A049"/>
<stop offset="1" stop-color="#3CAD59"/>
</linearGradient>
<linearGradient id="paint2_linear_314_6050" x1="2.58419" y1="65.4782" x2="73.7052" y2="11.2752" gradientUnits="userSpaceOnUse">
<stop stop-color="#067838"/>
<stop offset="1" stop-color="#3CAD59"/>
</linearGradient>
</defs>
</svg>
