<svg width="26" height="25" viewBox="0 0 26 25" fill="none" xmlns="http://www.w3.org/2000/svg">
<path d="M4.66732 5.20833V19.7917H21.334V5.20833H4.66732ZM3.62565 3.125H22.3757C22.6519 3.125 22.9169 3.23475 23.1122 3.4301C23.3076 3.62545 23.4173 3.8904 23.4173 4.16667V20.8333C23.4173 21.1096 23.3076 21.3746 23.1122 21.5699C22.9169 21.7653 22.6519 21.875 22.3757 21.875H3.62565C3.34938 21.875 3.08443 21.7653 2.88908 21.5699C2.69373 21.3746 2.58398 21.1096 2.58398 20.8333V4.16667C2.58398 3.8904 2.69373 3.62545 2.88908 3.4301C3.08443 3.23475 3.34938 3.125 3.62565 3.125ZM15.91 10.201L14.0423 8.33333H19.2507V13.5417L17.3829 11.674L13.3579 15.699L11.1486 13.4896L8.20169 16.4354L6.72878 14.9625L11.1486 10.5427L13.3579 12.7531L15.91 10.201Z" fill="#2EAB6A"/>
</svg>
