<svg width="24" height="24" viewBox="0 0 24 24" fill="none" xmlns="http://www.w3.org/2000/svg">
<path d="M5.29232 9C5.54648 9 5.79024 9.10536 5.96996 9.29289C6.14968 9.48043 6.25065 9.73478 6.25065 10C7.75633 9.99769 9.21859 10.5263 10.4002 11.5H12.4798C13.7573 11.5 14.9044 12.08 15.6941 13H18.709C19.6149 12.9997 20.5022 13.2674 21.2682 13.772C22.0342 14.2767 22.6475 14.9975 23.0368 15.851C20.7704 18.972 17.1009 21 12.959 21C10.2852 21 8.02357 20.397 6.19315 19.342C6.12611 19.5351 6.00363 19.7018 5.84242 19.8196C5.6812 19.9374 5.4891 20.0003 5.29232 20H2.41732C2.16315 20 1.9194 19.8946 1.73967 19.7071C1.55995 19.5196 1.45898 19.2652 1.45898 19V10C1.45898 9.73478 1.55995 9.48043 1.73967 9.29289C1.9194 9.10536 2.16315 9 2.41732 9H5.29232ZM6.25161 12L6.25065 17.022L6.29378 17.054C8.01398 18.314 10.2546 19 12.959 19C15.8378 19 18.5164 17.844 20.4675 15.87L20.595 15.737L20.48 15.637C20.0275 15.2672 19.4789 15.0477 18.9054 15.007L18.709 15H16.6859C16.7549 15.322 16.7923 15.656 16.7923 16V17H8.16732V15L14.6744 14.999L14.6418 14.921C14.4582 14.5205 14.1757 14.1783 13.8233 13.9295C13.471 13.6806 13.0615 13.5341 12.637 13.505L12.4798 13.5H9.6719C9.22658 13.0247 8.69466 12.6472 8.10744 12.3896C7.52023 12.132 6.88957 11.9995 6.25257 12H6.25161ZM4.33398 11H3.37565V18H4.33398V11ZM17.7507 5C18.5131 5 19.2444 5.31607 19.7836 5.87868C20.3228 6.44129 20.6257 7.20435 20.6257 8C20.6257 8.79565 20.3228 9.55871 19.7836 10.1213C19.2444 10.6839 18.5131 11 17.7507 11C16.9882 11 16.2569 10.6839 15.7177 10.1213C15.1786 9.55871 14.8757 8.79565 14.8757 8C14.8757 7.20435 15.1786 6.44129 15.7177 5.87868C16.2569 5.31607 16.9882 5 17.7507 5ZM17.7507 7C17.4965 7 17.2527 7.10536 17.073 7.29289C16.8933 7.48043 16.7923 7.73478 16.7923 8C16.7923 8.26522 16.8933 8.51957 17.073 8.70711C17.2527 8.89464 17.4965 9 17.7507 9C18.0048 9 18.2486 8.89464 18.4283 8.70711C18.608 8.51957 18.709 8.26522 18.709 8C18.709 7.73478 18.608 7.48043 18.4283 7.29289C18.2486 7.10536 18.0048 7 17.7507 7ZM11.0423 2C11.8048 2 12.5361 2.31607 13.0752 2.87868C13.6144 3.44129 13.9173 4.20435 13.9173 5C13.9173 5.79565 13.6144 6.55871 13.0752 7.12132C12.5361 7.68393 11.8048 8 11.0423 8C10.2798 8 9.54855 7.68393 9.00939 7.12132C8.47022 6.55871 8.16732 5.79565 8.16732 5C8.16732 4.20435 8.47022 3.44129 9.00939 2.87868C9.54855 2.31607 10.2798 2 11.0423 2ZM11.0423 4C10.7882 4 10.5444 4.10536 10.3647 4.29289C10.185 4.48043 10.084 4.73478 10.084 5C10.084 5.26522 10.185 5.51957 10.3647 5.70711C10.5444 5.89464 10.7882 6 11.0423 6C11.2965 6 11.5402 5.89464 11.72 5.70711C11.8997 5.51957 12.0007 5.26522 12.0007 5C12.0007 4.73478 11.8997 4.48043 11.72 4.29289C11.5402 4.10536 11.2965 4 11.0423 4Z" fill="#2EAB6A"/>
</svg>
